# xmcd
#
# Track frame offsets: 
#        150
#        16438
#        31200
#        55938
#        70910
#        87050
#        105595
#        122738
#        140483
#        162140
#        183995
#        204165
#        224288
#        239325
#        255950
#        271600
#
# Disc length: 3855 seconds
#
# Revision: 4
# Processed by: cddbd v1.5.2PL0 Copyright (c) Steve Scherf et al.
# Submitted via: ExactAudioCopy v1.0b3
#
DISCID=cf0f0d10
DTITLE=Modern Talking - America
DYEAR=2002
DGENRE=Pop
TTITLE0=Win The Race
TTITLE1=Last Exit To Broklyn
TTITLE2=Maria
TTITLE3=SMS To My Heart
TTITLE4=Cinderella Girl
TTITLE5=Why Does It Feel So Good
TTITLE6=Rain In My Heart
TTITLE7=Witchqueen Of Eldorado
TTITLE8=Run To You
TTITLE9=America
TTITLE10=For A Life Time
TTITLE11=From Coast To Coast
TTITLE12=There's Something In The Air
TTITLE13=I Need You Now
TTITLE14=New York City Girl
TTITLE15=Send Me A Letter From Heaven
EXTD=YEAR: 2002 ID3G: 13
EXTT0=
EXTT1=
EXTT2=
EXTT3=
EXTT4=
EXTT5=
EXTT6=
EXTT7=
EXTT8=
EXTT9=
EXTT10=
EXTT11=
EXTT12=
EXTT13=
EXTT14=
EXTT15=
PLAYORDER=
